<svg fill="none" version="1.1" viewBox="0 0 16 16" xmlns="http://www.w3.org/2000/svg" xmlns:xlink="http://www.w3.org/1999/xlink">
<defs>
<linearGradient id="linearGradient894" x1="6.0258" x2="8.9584" y1="3.3425" y2="12.106" gradientUnits="userSpaceOnUse">
<stop stop-color="#0678ff" offset="0"/>
<stop stop-color="#7f05ff" offset="1"/>
</linearGradient>
<linearGradient id="linearGradient1158" x1="4.0107" x2="13.224" y1=".31249" y2="14.18" gradientUnits="userSpaceOnUse">
<stop stop-color="#fff6d5" stop-opacity=".084886" offset="0"/>
<stop stop-color="#e4e4ff" stop-opacity=".078586" offset="1"/>
</linearGradient>
</defs>
<rect width="16" height="16" rx="4" ry="4" fill="url(#linearGradient1158)"/>
<path d="m12.146 1.1464c0.1953-0.19527 0.5119-0.19527 0.7071 0l2 2c0.1953 0.19526 0.1953 0.51184 0 0.7071l-3.9426 3.9426c-0.076 0.076-0.1638 0.13925-0.2599 0.18732l-3.9274 1.9637c-0.1925 0.09629-0.42498 0.05849-0.57716-0.09366-0.15218-0.15218-0.18991-0.38466-0.09366-0.57716l1.9637-3.9274c0.04807-0.09614 0.11132-0.1839 0.18732-0.2599zm0.3536 1.0607-3.5891 3.5891-1.0382 2.0765 0.25465 0.25465 2.0765-1.0382 3.5891-3.5891zm-2.5-0.20711-1 1h-4.1c-0.42829 0-0.71944 3.9e-4 -0.94448 0.01877-0.21921 0.01791-0.33131 0.05038-0.40951 0.09022-0.18816 0.09588-0.34114 0.24886-0.43702 0.43702-0.03984 0.0782-0.0723 0.1903-0.09021 0.40951-0.01839 0.22504-0.01878 0.51619-0.01878 0.94448v6.2c0 0.4283 3.9e-4 0.7194 0.01878 0.9445 0.01791 0.2192 0.05037 0.3313 0.09021 0.4095 0.09588 0.1882 0.24886 0.3411 0.43702 0.437 0.0782 0.0399 0.1903 0.0723 0.40951 0.0902 0.22504 0.0184 0.51619 0.0188 0.94448 0.0188h6.2c0.4283 0 0.7194-4e-4 0.9445-0.0188 0.2192-0.0179 0.3313-0.0503 0.4095-0.0902 0.1882-0.0959 0.3411-0.2488 0.437-0.437 0.0399-0.0782 0.0723-0.1903 0.0902-0.4095 0.0184-0.2251 0.0188-0.5162 0.0188-0.9445v-4.1l1-1v5.1207c0 0.4024 0 0.7346-0.0221 1.0052-0.023 0.2811-0.0722 0.5394-0.1959 0.7821-0.1917 0.3763-0.4977 0.6823-0.874 0.874-0.2427 0.1237-0.501 0.1729-0.7821 0.1959-0.2706 0.0221-0.6028 0.0221-1.0052 0.0221h-6.2414c-0.40248 0-0.73466 0-1.0052-0.0221-0.28105-0.023-0.5394-0.0722-0.78207-0.1959-0.37632-0.1917-0.68229-0.4977-0.87403-0.874-0.12365-0.2427-0.17293-0.501-0.19589-0.7821-0.02211-0.2706-0.02211-0.6028-0.0221-1.0052v-6.2414c-1e-5 -0.40246-1e-5 -0.73463 0.0221-1.0052 0.02296-0.28105 0.07224-0.5394 0.19589-0.78207 0.19174-0.37633 0.49771-0.68229 0.87403-0.87403 0.24267-0.12365 0.50102-0.17293 0.78207-0.19589 0.27059-0.02211 0.60276-0.02211 1.0052-0.0221h0.02068z" clip-rule="evenodd" fill="url(#linearGradient894)" fill-rule="evenodd"/>
</svg>
