<?xml version="1.0" encoding="UTF-8" standalone="no"?>
<!-- Generator: Adobe Illustrator 16.0.0, SVG Export Plug-In . SVG Version: 6.00 Build 0)  -->

<svg
   version="1.1"
   id="Capa_1"
   x="0px"
   y="0px"
   width="96"
   height="96"
   viewBox="0 0 96 96"
   xml:space="preserve"
   sodipodi:docname="clipboard-variant-with-pencil-and-check-mark-variant-2.svg"
   inkscape:version="1.2 (1:1.2.1+202207142221+cd75a1ee6d)"
   inkscape:export-filename="../final/clipboard-variant-with-pencil-and-check-mark-variant-2.svg"
   inkscape:export-xdpi="96"
   inkscape:export-ydpi="96"
   xmlns:inkscape="http://www.inkscape.org/namespaces/inkscape"
   xmlns:sodipodi="http://sodipodi.sourceforge.net/DTD/sodipodi-0.dtd"
   xmlns:xlink="http://www.w3.org/1999/xlink"
   xmlns="http://www.w3.org/2000/svg"
   xmlns:svg="http://www.w3.org/2000/svg"><defs
   id="defs39"><linearGradient
   inkscape:collect="always"
   id="linearGradient1103"><stop
     style="stop-color:#c30076;stop-opacity:1;"
     offset="0"
     id="stop1099" /><stop
     style="stop-color:#045aff;stop-opacity:1;"
     offset="1"
     id="stop1101" /></linearGradient><linearGradient
   inkscape:collect="always"
   id="linearGradient298"><stop
     style="stop-color:#e8f0ff;stop-opacity:1;"
     offset="0"
     id="stop294" /><stop
     style="stop-color:#efd6ff;stop-opacity:1;"
     offset="1"
     id="stop296" /></linearGradient>
	
<linearGradient
   inkscape:collect="always"
   xlink:href="#linearGradient298"
   id="linearGradient300"
   x1="16"
   y1="0"
   x2="80"
   y2="96"
   gradientUnits="userSpaceOnUse" /><linearGradient
   inkscape:collect="always"
   xlink:href="#linearGradient1103"
   id="linearGradient1105"
   x1="14.280522"
   y1="8.2879076"
   x2="54.76545"
   y2="77.611198"
   gradientUnits="userSpaceOnUse" /></defs><sodipodi:namedview
   id="namedview37"
   pagecolor="#ffffff"
   bordercolor="#999999"
   borderopacity="1"
   inkscape:pageshadow="0"
   inkscape:pageopacity="0"
   inkscape:pagecheckerboard="true"
   showgrid="true"
   inkscape:zoom="8.0208333"
   inkscape:cx="20.072727"
   inkscape:cy="48"
   inkscape:current-layer="Capa_1"
   inkscape:showpageshadow="2"
   inkscape:deskcolor="#d1d1d1"
   inkscape:lockguides="false"
   inkscape:window-width="1920"
   inkscape:window-height="1015"
   inkscape:window-x="0"
   inkscape:window-y="33"
   inkscape:window-maximized="1"><inkscape:grid
     type="xygrid"
     id="grid114"
     spacingx="8"
     spacingy="8" /></sodipodi:namedview>
<rect
   style="fill:url(#linearGradient300);stroke-width:1;fill-opacity:1"
   id="rect168"
   width="96"
   height="96"
   x="0"
   y="0"
   rx="16"
   ry="16" /><path
   d="m 69.839538,72.002354 2.910996,-2.910995 v 15.513552 c 0,1.87227 -1.523892,3.395093 -3.396161,3.395093 H 47.519771 39.775284 17.942821 c -1.872269,0 -3.396161,-1.522823 -3.396161,-3.395093 V 16.701995 c 0,-1.872269 1.523892,-3.395092 3.396161,-3.395092 h 10.869212 l -0.392193,1.76968 c -0.03313,0.148542 -0.04916,0.28426 -0.04916,0.412498 v 7.760517 c 0,1.069715 0.869879,1.939594 1.939595,1.939594 h 26.675573 c 1.070785,0 1.940664,-0.869879 1.940664,-1.939594 v -7.760517 c 0,-0.129307 -0.0171,-0.263956 -0.05022,-0.412498 l -0.392193,-1.76968 h 10.869212 10e-4 c 1.872269,0 3.396161,1.522823 3.396161,3.395092 v 23.062477 l -2.912064,2.910995 V 16.701995 c 0,-0.267162 -0.218004,-0.485165 -0.485166,-0.485165 H 61.83639 v 7.032768 c 0,2.673754 -2.174697,4.850589 -4.85059,4.850589 H 30.309159 c -2.674824,0 -4.850591,-2.175766 -4.850591,-4.850589 V 16.21683 h -7.515796 c -0.267162,0 -0.485165,0.218003 -0.485165,0.485165 v 67.902916 c 0,0.267162 0.218003,0.486234 0.485165,0.486234 h 21.833533 7.744486 21.833533 c 0.267162,0 0.485165,-0.219072 0.485165,-0.486234 z M 31.908972,23.367148 h 23.478181 c 0.943615,0 1.707698,-0.764083 1.707698,-1.707698 v -6.829724 c 0,-0.943617 -0.764083,-1.707699 -1.707698,-1.707699 h -6.402266 c 0,-2.828709 -2.403387,-5.1220266 -5.365678,-5.1220266 -2.964427,0 -5.366746,2.2933176 -5.366746,5.1220266 h -6.342422 c -0.943616,0 -1.70663,0.764082 -1.70663,1.707699 v 6.829724 c 0,0.942547 0.763014,1.707698 1.705561,1.707698 z m 7.71029,30.426525 -9.194641,-9.194641 -3.777668,3.777668 12.972309,12.972309 21.030979,-21.032046 -3.7766,-3.777669 z M 87.353598,45.986136 80.74829,39.379759 c -0.972469,-0.9714 -2.694061,-0.830339 -3.841787,0.316319 l -3.635538,3.636607 10.130776,10.129707 3.634469,-3.636606 c 1.149864,-1.14559 1.289857,-2.868249 0.317388,-3.83965 z M 71.58464,45.02008 81.714347,55.149787 57.558645,79.307627 c -0.11114,0.111139 -0.417842,0.41891 -0.849575,0.527911 -0.05022,0.02244 -0.100458,0.04382 -0.151749,0.06092 l -12.606831,4.01704 c -0.352654,0.111139 -0.707445,0.04061 -0.937204,-0.191287 -0.229759,-0.229759 -0.302427,-0.58455 -0.191287,-0.937204 l 4.018113,-12.604694 c 0.0171,-0.05237 0.0374,-0.102591 0.06092,-0.152817 0.110071,-0.431734 0.416772,-0.738435 0.52898,-0.850644 z m -17.142171,33.508503 -6.236626,-6.236625 -1.672433,5.252401 2.657726,2.657726 z M 71.194583,49.046742 c -0.359065,-0.359066 -0.939341,-0.359066 -1.298406,0 L 51.065544,67.878444 c -0.359066,0.357998 -0.359066,0.94041 0,1.298406 0.357996,0.357998 0.93934,0.357998 1.298406,0 L 71.194583,50.345149 c 0.359066,-0.359066 0.359066,-0.94041 0,-1.298407 z"
   id="path2"
   style="fill:url(#linearGradient1105);fill-opacity:1;stroke-width:1" />















</svg>
