<?xml version="1.0" encoding="UTF-8" standalone="no"?>
<svg
   width="16"
   height="16"
   viewBox="0 0 16 16"
   fill="none"
   version="1.1"
   id="svg4"
   sodipodi:docname="pencil-2-color-2.svg"
   inkscape:version="1.2 (1:1.2.1+202207142221+cd75a1ee6d)"
   inkscape:export-filename="../final/pencil-2-color.svg"
   inkscape:export-xdpi="96"
   inkscape:export-ydpi="96"
   xmlns:inkscape="http://www.inkscape.org/namespaces/inkscape"
   xmlns:sodipodi="http://sodipodi.sourceforge.net/DTD/sodipodi-0.dtd"
   xmlns:xlink="http://www.w3.org/1999/xlink"
   xmlns="http://www.w3.org/2000/svg"
   xmlns:svg="http://www.w3.org/2000/svg">
  <defs
     id="defs8">
    <linearGradient
       inkscape:collect="always"
       id="linearGradient1156">
      <stop
         style="stop-color:#fff6d5;stop-opacity:1;"
         offset="0"
         id="stop1152" />
      <stop
         style="stop-color:#e4e4ff;stop-opacity:1;"
         offset="1"
         id="stop1154" />
    </linearGradient>
    <linearGradient
       inkscape:collect="always"
       id="linearGradient892">
      <stop
         style="stop-color:#0678ff;stop-opacity:1;"
         offset="0"
         id="stop888" />
      <stop
         style="stop-color:#7f05ff;stop-opacity:1;"
         offset="1"
         id="stop890" />
    </linearGradient>
    <linearGradient
       inkscape:collect="always"
       xlink:href="#linearGradient892"
       id="linearGradient894"
       x1="6.0258489"
       y1="3.342521"
       x2="8.9583988"
       y2="12.106139"
       gradientUnits="userSpaceOnUse" />
    <linearGradient
       inkscape:collect="always"
       xlink:href="#linearGradient1156"
       id="linearGradient1158"
       x1="4.0106769"
       y1="0.31248564"
       x2="13.223539"
       y2="14.180061"
       gradientUnits="userSpaceOnUse" />
  </defs>
  <sodipodi:namedview
     id="namedview6"
     pagecolor="#ffffff"
     bordercolor="#000000"
     borderopacity="0.25"
     inkscape:showpageshadow="2"
     inkscape:pageopacity="0.0"
     inkscape:pagecheckerboard="0"
     inkscape:deskcolor="#d1d1d1"
     showgrid="false"
     inkscape:zoom="15.733333"
     inkscape:cx="7.5317797"
     inkscape:cy="7.5"
     inkscape:window-width="1920"
     inkscape:window-height="1015"
     inkscape:window-x="0"
     inkscape:window-y="33"
     inkscape:window-maximized="1"
     inkscape:current-layer="svg4" />
  <rect
     style="fill:url(#linearGradient1158);fill-opacity:1"
     id="rect1150"
     width="16"
     height="16"
     x="0"
     y="0"
     rx="4"
     ry="4" />
  <path
     d="m 12.1464,1.14645 c 0.1953,-0.195266 0.5119,-0.195266 0.7071,0 l 2,2 c 0.1953,0.19526 0.1953,0.51184 0,0.7071 l -3.9426,3.94263 c -0.076,0.076 -0.1638,0.13925 -0.2599,0.18732 L 6.72359,9.94721 C 6.53109,10.0435 6.29861,10.0057 6.14643,9.85355 5.99425,9.70137 5.95652,9.46889 6.05277,9.27639 L 8.01648,5.34897 C 8.06455,5.25283 8.1278,5.16507 8.2038,5.08907 Z M 12.5,2.20711 8.91091,5.79618 7.87266,7.87267 8.12731,8.12732 10.2038,7.08907 13.7929,3.5 Z M 9.99998,2 l -1,1 H 4.9 C 4.47171,3 4.18056,3.00039 3.95552,3.01877 3.73631,3.03668 3.62421,3.06915 3.54601,3.10899 3.35785,3.20487 3.20487,3.35785 3.10899,3.54601 3.06915,3.62421 3.03669,3.73631 3.01878,3.95552 3.00039,4.18056 3,4.47171 3,4.9 v 6.2 c 0,0.4283 3.9e-4,0.7194 0.01878,0.9445 0.01791,0.2192 0.05037,0.3313 0.09021,0.4095 0.09588,0.1882 0.24886,0.3411 0.43702,0.437 0.0782,0.0399 0.1903,0.0723 0.40951,0.0902 C 4.18056,12.9996 4.47171,13 4.9,13 h 6.2 c 0.4283,0 0.7194,-4e-4 0.9445,-0.0188 0.2192,-0.0179 0.3313,-0.0503 0.4095,-0.0902 0.1882,-0.0959 0.3411,-0.2488 0.437,-0.437 0.0399,-0.0782 0.0723,-0.1903 0.0902,-0.4095 C 12.9996,11.8194 13,11.5283 13,11.1 V 6.99998 l 1,-1 V 11.1 11.1207 c 0,0.4024 0,0.7346 -0.0221,1.0052 -0.023,0.2811 -0.0722,0.5394 -0.1959,0.7821 -0.1917,0.3763 -0.4977,0.6823 -0.874,0.874 -0.2427,0.1237 -0.501,0.1729 -0.7821,0.1959 C 11.8553,14 11.5231,14 11.1207,14 H 11.1 4.9 4.87934 C 4.47686,14 4.14468,14 3.87409,13.9779 3.59304,13.9549 3.33469,13.9057 3.09202,13.782 2.7157,13.5903 2.40973,13.2843 2.21799,12.908 2.09434,12.6653 2.04506,12.407 2.0221,12.1259 1.99999,11.8553 1.99999,11.5231 2,11.1207 V 11.1206 11.1 4.9 4.87935 v -3e-5 -10e-6 C 1.99999,4.47685 1.99999,4.14468 2.0221,3.87409 2.04506,3.59304 2.09434,3.33469 2.21799,3.09202 2.40973,2.71569 2.7157,2.40973 3.09202,2.21799 3.33469,2.09434 3.59304,2.04506 3.87409,2.0221 4.14468,1.99999 4.47685,1.99999 4.87932,2 h 3e-5 H 4.9 Z"
     fill="currentColor"
     fill-rule="evenodd"
     clip-rule="evenodd"
     id="path2"
     style="fill-opacity:1;fill:url(#linearGradient894)" />
</svg>
